# xmcd CD database file
#
# Track frame offsets:
#	150
#	50932
#	76182
#	116525
#	140907
#	190677
#	214227
#	236977
#	267525
#	313385
#
# Disc length: 4613 seconds
#
# Revision: 5
# Processed by: cddbd v1.5PL3 Copyright (c) Steve Scherf et al.
# Submitted via: CDex 1.51
#
DISCID=a212030a
DTITLE=Various Artist - The Smithsonian Collection of Classic Jazz (Revised) - Volume V
DYEAR=1987
DGENRE=Jazz
TTITLE0=Sonny Rollins Quartet - Blue 7 [Rollins]
TTITLE1=Wes Montgomery Quartet - West Coast Blues [abridged] [Montgomery]
TTITLE2=Miles Davis Sextet - So What [Davis]
TTITLE3=Bill Evans Trio - Blue in Green [Evans-Davis]
TTITLE4=Cecil Taylor Unit - Enter Evening [Taylor]
TTITLE5=John Coltrane Quartet - Alabama [Coltrane]
TTITLE6=Ornette Coleman Quartet - Lonely Woman [Coleman]
TTITLE7=Ornette Coleman Quartet - Congeniality [Coleman]
TTITLE8=Ornette Coleman Double Quartet - Free Jazz [excerpt] [Coleman]
TTITLE9=World Saxophone Quartet - Steppin' [Hemphill]
EXTD=YEAR: 1987
EXTT0=
EXTT1=
EXTT2=
EXTT3=
EXTT4=
EXTT5=
EXTT6=
EXTT7=
EXTT8=
EXTT9=
PLAYORDER=
